<svg xmlns="http://www.w3.org/2000/svg" viewBox="0 0 134.56 89.5"><defs><style>.cls-1{fill:#fff;}.cls-2{fill:#231f20;}</style></defs><title>Asset 1</title><g id="Layer_2" data-name="Layer 2"><g id="Layer_1-2" data-name="Layer 1"><polygon class="cls-1" points="134.56 0 0 0 0 89.5 134.56 89.47 134.56 0 134.56 0"/><path class="cls-2" d="M133.4,1.19V88.31H1.17V1.19H133.4"/><rect class="cls-1" x="5.84" y="25.59" width="122.89" height="44.19"/><rect class="cls-1" x="5.84" y="5.92" width="122.85" height="15"/><polygon class="cls-1" points="5.87 83.93 5.87 74.65 17.97 74.65 17.97 76.82 10.73 76.82 10.73 78.15 16.86 78.15 16.86 80.31 10.73 80.31 10.73 81.76 18.25 81.76 18.25 83.93 5.87 83.93"/><path class="cls-1" d="M28.54,77.35a1,1,0,0,0-.7-.63,3.93,3.93,0,0,0-1.26-.17c-1.07,0-1.55.2-1.55.54,0,1.37,8.54.51,8.54,3.89,0,2.15-2.87,3.2-6.95,3.2-3.92,0-6.47-1.43-6.57-3.11H24.7a1.22,1.22,0,0,0,.81.73,4,4,0,0,0,1.39.23c1.21,0,2-.24,2-.68,0-1.41-8.54-.44-8.54-4,0-2,2.72-3,6.44-3,4.12,0,6,1.31,6.35,2.94Z"/><path class="cls-1" d="M40.85,78.67h1.91c1.51,0,2.31-.24,2.31-.88s-.82-1-2-1H40.85Zm0,2v3.24H36V74.65h7c4.94,0,6.57.85,6.57,2.65,0,1.07-.76,2-2.49,2.28,1.56.35,2.51.57,2.51,2.45,0,1.21-.07,1.62.51,1.62v.28H45.17a4,4,0,0,1-.24-1.62c0-1.22-.33-1.62-2.6-1.62Z"/><path class="cls-1" d="M57.42,76.82v1.55h2c1,0,1.68-.28,1.68-.81,0-.72-1-.74-2-.74Zm0,3.24v1.71h2.12c1.21,0,2.11-.15,2.11-.85s-1.13-.86-2.68-.86Zm-4.86,3.88V74.65h7.09c3.34,0,6,.5,6,2.34,0,1-1,1.66-1.94,2,1.6.26,2.47,1.13,2.47,2.13,0,2.07-2.53,2.8-6.39,2.8Z"/><polygon points="72.97 47.98 71.72 43.63 63.62 45.7 64.87 50.05 72.97 47.98"/><path class="cls-2" d="M40.5,52.79c-.76-2.78-2.25-4.41-4.39-5,1.33-1.55,2.08-3.94,1.06-7.7-1.43-5.25-5.05-7.78-9.46-6.62l-10,2.65-.21.05,8.3,30.56L32.49,65S29.77,55,29.3,53.22l.32-.09a3.09,3.09,0,0,1,2.28,0c.89.5,1.3,2,1.76,3.8L34,58.38a13.14,13.14,0,0,0,2.06,5l.45.59,7.66-2-1-1.31C42.66,59.93,41.37,56,40.5,52.79Zm-11-5.46-1.71.45-2.15-7.92,1.71-.45c.81-.21,2.17-.57,3.16,3.09C30.73,43.21,31.59,46.78,29.53,47.33Z"/><path class="cls-2" d="M48.89,28.43l-9,2.39-1.09.29,8.3,30.56,6.85-1.81L50.78,48.28l2.95-.78c5.34-1.42,7.39-5.55,5.74-11.61C57.31,28,52.53,27.47,48.89,28.43ZM51.69,42l-2.44.65c-.49-1.81-1.66-6.11-2.15-7.92l2.08-.55c1.18-.32,2.53-.32,3.6,3.62C53.29,39.67,52.76,41.71,51.69,42Z"/><polygon class="cls-2" points="76.6 36.45 89.6 32.95 97.01 50.38 97.07 50.36 94.84 31.55 107.83 28.05 115.94 58.49 108.02 60.62 102.22 38.85 102.16 38.88 104.61 61.53 96.04 63.84 86.91 42.98 86.84 42.99 92.63 64.76 84.71 66.88 76.6 36.45"/><path class="cls-2" d="M8.88,18.62H7.55V8H10a1.21,1.21,0,0,1,1.09.71,4.33,4.33,0,0,1,.4,2.08,4.84,4.84,0,0,1-.27,1.73,1.33,1.33,0,0,1-.91.89v0l.3.09a.88.88,0,0,1,.38.26,1.73,1.73,0,0,1,.33.61,3.62,3.62,0,0,1,.14,1.13c0,.17,0,.4,0,.71s0,.62,0,.95,0,.62,0,.9a3.26,3.26,0,0,0,.08.57h-1.3a4,4,0,0,1-.14-1c0-.35,0-.7,0-1s0-.62,0-.9a3,3,0,0,0-.09-.75,1.07,1.07,0,0,0-.28-.51.79.79,0,0,0-.57-.19H8.88Zm0-6.05h.59a.43.43,0,0,0,.32-.15A1.06,1.06,0,0,0,10,12a2.31,2.31,0,0,0,.11-.51,4.45,4.45,0,0,0,0-.53A2.34,2.34,0,0,0,10,9.91a.55.55,0,0,0-.49-.32H8.88Z"/><path class="cls-2" d="M12,18.62,13.74,8h1.75l1.73,10.66h-1.4l-.35-2.36H13.65l-.36,2.36ZM14.54,10h0l-.6,4.61h1.27Z"/><path class="cls-2" d="M21.09,8V9.73H19.62v8.89H18.29V9.73H16.81V8Z"/><path class="cls-2" d="M21.71,18.62V8H23V18.62Z"/><path class="cls-2" d="M24.16,18.62V8H26l1.69,7.38h0V8H28.9V18.62H27.16l-1.74-7.8h0v7.8Z"/><path class="cls-2" d="M32.93,11.23c0-.24,0-.48,0-.71a2.44,2.44,0,0,0-.11-.59,1,1,0,0,0-.24-.41.59.59,0,0,0-.42-.15.52.52,0,0,0-.47.33,2.81,2.81,0,0,0-.25.87,10.12,10.12,0,0,0-.09,1.26q0,.72,0,1.48c0,.84,0,1.51,0,2a7,7,0,0,0,.15,1.19,1.07,1.07,0,0,0,.29.57.72.72,0,0,0,.47.15,1,1,0,0,0,.34-.06,1.66,1.66,0,0,0,.32-.15V14.68h-.72V13h2v5.4l-.36.1-.48.12-.51.1a3.6,3.6,0,0,1-.45,0,2.57,2.57,0,0,1-1.33-.3,1.88,1.88,0,0,1-.75-1A6.27,6.27,0,0,1,30,15.78c0-.71-.07-1.57-.07-2.59,0-.67,0-1.33,0-2a7.87,7.87,0,0,1,.26-1.74,2.88,2.88,0,0,1,.67-1.23,1.67,1.67,0,0,1,1.27-.47,1.69,1.69,0,0,1,.88.23,1.87,1.87,0,0,1,.66.66,3.28,3.28,0,0,1,.4,1.08,6.55,6.55,0,0,1,.1,1.48Z"/><path class="cls-2" d="M37.36,8h2.39a1.35,1.35,0,0,1,.78.22,1.58,1.58,0,0,1,.52.64,3.58,3.58,0,0,1,.29,1,8.46,8.46,0,0,1,.09,1.31,9.28,9.28,0,0,1-.06,1,4,4,0,0,1-.24,1,2.08,2.08,0,0,1-.54.79,1.34,1.34,0,0,1-.93.32h-1v4.34H37.36Zm1.33,4.68h.74a.37.37,0,0,0,.27-.12,1.13,1.13,0,0,0,.21-.33,1.93,1.93,0,0,0,.13-.45,2.78,2.78,0,0,0,0-.53c0-.22,0-.42,0-.62a2.13,2.13,0,0,0-.11-.52.86.86,0,0,0-.23-.34.55.55,0,0,0-.37-.13h-.67Z"/><path class="cls-2" d="M42.24,18.62V8H45.7V9.59H43.57v2.63h2v1.64h-2V17h2.21v1.64Z"/><path class="cls-2" d="M46.64,18.62V8h1.8l1.69,7.38h0V8h1.24V18.62H49.64l-1.74-7.8h0v7.8Z"/><path class="cls-2" d="M52.53,8h2.22a1.55,1.55,0,0,1,1.06.35,2.31,2.31,0,0,1,.63,1,7.22,7.22,0,0,1,.3,1.66c.05.65.08,1.4.08,2.22v1c0,.37,0,.76,0,1.16a9.22,9.22,0,0,1-.16,1.19,4,4,0,0,1-.36,1,2.23,2.23,0,0,1-.62.75,1.53,1.53,0,0,1-.94.29H52.53Zm1.33,9h.64a.64.64,0,0,0,.49-.2,1.42,1.42,0,0,0,.3-.64A6.49,6.49,0,0,0,55.43,15q0-.7,0-1.71c0-.49,0-1,0-1.4a8,8,0,0,0-.1-1.17,2.27,2.27,0,0,0-.28-.81.6.6,0,0,0-.53-.3h-.69Z"/><path class="cls-2" d="M57.88,18.62V8H59.2V18.62Z"/><path class="cls-2" d="M60.33,18.62V8h1.79l1.69,7.38h0V8h1.24V18.62H63.32l-1.73-7.8h0v7.8Z"/><path class="cls-2" d="M69.09,11.23c0-.24,0-.48,0-.71a2.35,2.35,0,0,0-.1-.59,1,1,0,0,0-.24-.41.59.59,0,0,0-.42-.15.52.52,0,0,0-.47.33,2.76,2.76,0,0,0-.25.87,10.12,10.12,0,0,0-.09,1.26q0,.72,0,1.48c0,.84,0,1.51,0,2a6.56,6.56,0,0,0,.15,1.19,1.07,1.07,0,0,0,.29.57.72.72,0,0,0,.47.15,1,1,0,0,0,.34-.06,1.56,1.56,0,0,0,.32-.15V14.68h-.72V13h2v5.4l-.36.1-.48.12-.51.1a3.5,3.5,0,0,1-.45,0,2.58,2.58,0,0,1-1.33-.3,1.88,1.88,0,0,1-.75-1,6.2,6.2,0,0,1-.33-1.74c-.05-.71-.08-1.57-.08-2.59,0-.67,0-1.33,0-2a7.62,7.62,0,0,1,.26-1.74,2.85,2.85,0,0,1,.67-1.23A1.88,1.88,0,0,1,69.25,8a1.9,1.9,0,0,1,.66.66,3.28,3.28,0,0,1,.39,1.08,6.54,6.54,0,0,1,.1,1.48Z"/><path class="cls-2" d="M73,11.16h.5V10L74.69,9v2.11h.64v1.28h-.64v4c0,.14,0,.26,0,.38a1.3,1.3,0,0,0,0,.3.38.38,0,0,0,.12.19.38.38,0,0,0,.23.07h.12a.17.17,0,0,0,.1,0v1.28l-.27.05-.38,0A1,1,0,0,1,74,18.5a1.32,1.32,0,0,1-.37-.45,1.91,1.91,0,0,1-.17-.55,3.81,3.81,0,0,1,0-.46V12.45H73Z"/><path class="cls-2" d="M77.6,18.77a1.48,1.48,0,0,1-1-.3,1.85,1.85,0,0,1-.55-.82,4.9,4.9,0,0,1-.25-1.25c0-.49-.06-1-.06-1.6s0-1,.05-1.46a4.68,4.68,0,0,1,.24-1.2,1.85,1.85,0,0,1,.55-.82,1.72,1.72,0,0,1,2,0,1.85,1.85,0,0,1,.55.82,4.69,4.69,0,0,1,.24,1.2c0,.46.05.94.05,1.46s0,1.11-.06,1.6a4.81,4.81,0,0,1-.25,1.25,1.87,1.87,0,0,1-.55.82A1.49,1.49,0,0,1,77.6,18.77Zm0-1.33a.39.39,0,0,0,.28-.11.81.81,0,0,0,.17-.41,5.92,5.92,0,0,0,.09-.84c0-.36,0-.83,0-1.4q0-.58,0-1a4.25,4.25,0,0,0-.08-.73,1.07,1.07,0,0,0-.18-.44.38.38,0,0,0-.31-.15.37.37,0,0,0-.31.15,1.1,1.1,0,0,0-.17.44,4,4,0,0,0-.08.73q0,.44,0,1c0,.57,0,1,0,1.4a6.21,6.21,0,0,0,.09.84.82.82,0,0,0,.17.41A.38.38,0,0,0,77.6,17.44Z"/><path class="cls-2" d="M82.28,18.62V8h2.14l1,7.25h0L86.49,8h2.07V18.62H87.26V10.39h0L86,18.62H84.75L83.6,10.39h0v8.23Z"/><path class="cls-2" d="M89.15,18.62,90.91,8h1.75l1.72,10.66H93l-.35-2.36H90.83l-.36,2.36ZM91.71,10h0l-.61,4.61h1.27Z"/><path class="cls-2" d="M98.26,8V9.73H96.79v8.89H95.46V9.73H94V8Z"/><path class="cls-2" d="M103.17,8v7.56a6.45,6.45,0,0,1-.11,1.19,3.61,3.61,0,0,1-.36,1,2.1,2.1,0,0,1-.66.76,1.73,1.73,0,0,1-1,.29,1.77,1.77,0,0,1-1.63-.88,4.63,4.63,0,0,1-.53-2.39V8h1.33v7.41a3.21,3.21,0,0,0,.23,1.41.67.67,0,0,0,.59.42.68.68,0,0,0,.64-.47,3.59,3.59,0,0,0,.2-1.36V8Z"/><path class="cls-2" d="M105.56,18.62h-1.33V8h2.45a1.21,1.21,0,0,1,1.09.71,4.3,4.3,0,0,1,.4,2.08,4.89,4.89,0,0,1-.27,1.73,1.33,1.33,0,0,1-.91.89v0l.3.09a.92.92,0,0,1,.38.26,1.75,1.75,0,0,1,.33.61,3.61,3.61,0,0,1,.14,1.13c0,.17,0,.4,0,.71s0,.62,0,.95,0,.62,0,.9a3.85,3.85,0,0,0,.07.57H107a3.93,3.93,0,0,1-.13-1q0-.53,0-1c0-.32,0-.62,0-.9a3.06,3.06,0,0,0-.09-.75,1.09,1.09,0,0,0-.28-.51.8.8,0,0,0-.58-.19h-.34Zm0-6.05h.59a.43.43,0,0,0,.33-.15,1.1,1.1,0,0,0,.21-.38,2.19,2.19,0,0,0,.11-.51,4.45,4.45,0,0,0,0-.53,2.38,2.38,0,0,0-.18-1.09.56.56,0,0,0-.5-.32h-.59Z"/><path class="cls-2" d="M109.14,18.62V8h3.47V9.59h-2.14v2.63h2v1.64h-2V17h2.21v1.64Z"/><path class="cls-2" d="M115.37,9.9a6.11,6.11,0,0,0,.64-.69,4.34,4.34,0,0,0,.55-.9h1.18V18.62h-1.33V10.69a5.24,5.24,0,0,1-.5.62c-.17.19-.36.37-.54.53Z"/><path class="cls-2" d="M122.42,10.27l-1.5,8.34h-1.38l1.68-8.72h-2.1V8.31h3.3Z"/><path class="cls-2" d="M124.47,10h1v2.91h1.49v1.64h-1.49v2.91h-1V14.58H123V12.94h1.49Z"/><path class="cls-1" d="M80.73,84.26a2.66,2.66,0,0,1-2.17-.94,4.58,4.58,0,0,1-.89-3,4.79,4.79,0,0,1,.9-3,2.44,2.44,0,0,1,2-1,2.56,2.56,0,0,1,2.13,1,5.36,5.36,0,0,1,.87,3.31V81h-4a2,2,0,0,0,.37,1.18,1,1,0,0,0,.83.44c.46,0,.77-.32.93-1l0-.11,1.82.37,0,.12a3.28,3.28,0,0,1-1,1.71A2.7,2.7,0,0,1,80.73,84.26Zm-1.16-4.72h2.18a2,2,0,0,0-.34-1.12.92.92,0,0,0-.74-.4.94.94,0,0,0-.77.41A1.86,1.86,0,0,0,79.57,79.54Z"/><path class="cls-1" d="M87.82,84.26a3.16,3.16,0,0,1-2-.6,2.91,2.91,0,0,1-1-1.76l0-.11.11,0,1.72-.32,0,.11a1.12,1.12,0,0,0,1.19,1.07,1.32,1.32,0,0,0,.8-.2.59.59,0,0,0,.24-.49.44.44,0,0,0-.1-.31,1,1,0,0,0-.47-.21,7.17,7.17,0,0,1-2.56-1A2.17,2.17,0,0,1,85,78.69,2.28,2.28,0,0,1,85.72,77a2.79,2.79,0,0,1,2-.65,3.13,3.13,0,0,1,1.88.48,2.64,2.64,0,0,1,.91,1.55l0,.11-1.74.39,0-.11a.94.94,0,0,0-1-.8,1.46,1.46,0,0,0-.78.15.4.4,0,0,0-.2.35.37.37,0,0,0,.18.31,6,6,0,0,0,1.4.49,4,4,0,0,1,1.88.95,2.18,2.18,0,0,1,.5,1.5,2.44,2.44,0,0,1-.77,1.85A3,3,0,0,1,87.82,84.26Z"/><path class="cls-1" d="M94.37,84.09H92.53v-7.6h1.72v.73a2.41,2.41,0,0,1,.5-.63,1.21,1.21,0,0,1,.77-.27,1.86,1.86,0,0,1,1.12.39l.06,0-.57,1.94L96,78.58c-.46-.37-.88-.38-1.2-.08a1.56,1.56,0,0,0-.33.83,17.2,17.2,0,0,0-.11,2.36Z"/><path class="cls-1" d="M101.29,84.26a2,2,0,0,1-1.09-.34,2.6,2.6,0,0,1-.69-.65v.82H97.79V73.68h1.84v3.45a2.63,2.63,0,0,1,.64-.54,2,2,0,0,1,1-.27,2.34,2.34,0,0,1,1.91,1,4.76,4.76,0,0,1,.76,2.92,4.88,4.88,0,0,1-.78,3A2.31,2.31,0,0,1,101.29,84.26ZM100.84,78a1,1,0,0,0-.86.5,2.77,2.77,0,0,0-.37,1.6,4.36,4.36,0,0,0,.18,1.41,1.52,1.52,0,0,0,.48.72,1,1,0,0,0,.64.24,1,1,0,0,0,.81-.51,3.09,3.09,0,0,0,.36-1.69,3.27,3.27,0,0,0-.36-1.76A1,1,0,0,0,100.84,78Z"/><path class="cls-1" d="M107.57,84.09h-1.83V81.91h1.83Z"/><path class="cls-1" d="M112.59,84.26a3,3,0,0,1-2.33-1.07,4.49,4.49,0,0,1-.92-3,4.56,4.56,0,0,1,.44-2A3.3,3.3,0,0,1,111,76.77a3,3,0,0,1,1.63-.46A2.82,2.82,0,0,1,115,77.5a4.54,4.54,0,0,1,.86,2.74,4.85,4.85,0,0,1-.45,2.11,3.38,3.38,0,0,1-1.18,1.43A2.89,2.89,0,0,1,112.59,84.26Zm0-6.13a1.17,1.17,0,0,0-1,.53,3.39,3.39,0,0,0,0,3.25,1.19,1.19,0,0,0,1,.53,1.16,1.16,0,0,0,1-.53,2.72,2.72,0,0,0,.41-1.64,2.65,2.65,0,0,0-.42-1.61A1.19,1.19,0,0,0,112.58,78.13Z"/><path class="cls-1" d="M119.35,84.09h-1.84v-7.6h1.72v.73a2.41,2.41,0,0,1,.5-.63,1.21,1.21,0,0,1,.77-.27,1.86,1.86,0,0,1,1.12.39l.06,0-.57,1.94-.13-.11c-.47-.37-.88-.38-1.2-.08a1.55,1.55,0,0,0-.33.83,17.15,17.15,0,0,0-.11,2.36Z"/><path class="cls-1" d="M125.65,87.08a4.16,4.16,0,0,1-1.64-.27,2.08,2.08,0,0,1-1-.84,2.41,2.41,0,0,1-.33-1.27v-.37l.13,0,1.93.28v.09a.7.7,0,0,0,.21.5,1,1,0,0,0,.6.15,1.75,1.75,0,0,0,.8-.16.7.7,0,0,0,.3-.36,2.82,2.82,0,0,0,.12-1v-.71a2.6,2.6,0,0,1-.64.62,1.91,1.91,0,0,1-1.07.32,2.19,2.19,0,0,1-1.79-1,5.7,5.7,0,0,1,0-5.81,2.34,2.34,0,0,1,1.91-1,2,2,0,0,1,1.09.32,2.58,2.58,0,0,1,.65.63v-.78h1.73v6.73a6.68,6.68,0,0,1-.3,2.35,2.3,2.3,0,0,1-1,1.13A3.43,3.43,0,0,1,125.65,87.08ZM125.59,78a1,1,0,0,0-.86.49,2.85,2.85,0,0,0-.36,1.6,3,3,0,0,0,.36,1.66,1,1,0,0,0,.83.49,1.1,1.1,0,0,0,.9-.51,2.68,2.68,0,0,0,.39-1.6,2.86,2.86,0,0,0-.38-1.64A1,1,0,0,0,125.59,78Z"/></g></g></svg>